# xmcd
#
# Track frame offsets:
#	150
#	14952
#	28634
#	43993
#	60910
#	77678
#
# Disc length: 1259 seconds
#
# Revision: 1
# Processed by: cddbd v1.5.2PL0 Copyright (c) Steve Scherf et al.
# Submitted via: audiograbber 1.83.01
#
DISCID=4804e906
DTITLE=Dean Brody - Black Sheep
DYEAR=2019
DGENRE=Country
TTITLE0=Black Sheep
TTITLE1=Whiskey In A Tea Cup
TTITLE2=Moonlight Girl
TTITLE3=Good Goodbye
TTITLE4=Ever After
TTITLE5=Dose Of Country
EXTD=
EXTT0=
EXTT1=
EXTT2=
EXTT3=
EXTT4=
EXTT5=
PLAYORDER=
